<?xml version="1.0" encoding="UTF-8"?>
<svg id="Layer_2" data-name="Layer 2" xmlns="http://www.w3.org/2000/svg" viewBox="0 0 18 18.1">
  <defs>
    <style>
      .cls-1 {
        fill: #fff;
      }
    </style>
  </defs>
  <g id="Layer_1-2" data-name="Layer 1">
    <g>
      <path class="cls-1" d="m17.78,5.13c-.13-.06-.29-.03-.39.08l-2.11,2.13V2.98c0-.2-.16-.36-.36-.36h-4.23l1.96-2.02c.1-.1.13-.26.07-.39C12.67.08,12.54,0,12.39,0l-4.51.09c-.09,0-.18.04-.25.1l-3.81,3.81c-.07.07-.1.16-.1.25v5.6L.11,13.47c-.14.14-.14.37,0,.51s.37.14.51,0l3.72-3.72c.07-.07.11-.16.11-.25v-5.6l3.6-3.6,3.49-.07-4.82,4.94c-.07.07-.1.16-.1.25v4.96c0,.2.16.36.36.36h5.28c.1,0,.19-.04.26-.11l4.77-4.8-.04,3.56-3.51,3.51h-5.7c-.09,0-.19.04-.25.1l-3.97,3.97c-.14.14-.14.37,0,.51.07.07.16.1.25.1s.18-.04.25-.1l3.86-3.86h5.7c.09,0,.19-.04.25-.1l3.72-3.72c.07-.07.1-.16.1-.25l.05-4.59c0-.15-.09-.28-.22-.34Zm-5.68,5.4h-4.77v-4.45l2.67-2.74s.06.01.09.01h4.46v4.7s0,0,0,0l-2.46,2.47Z"/>
      <path class="cls-1" d="m10.99,4.96c-1.13,0-2.05.92-2.05,2.05s.92,2.05,2.05,2.05,2.05-.92,2.05-2.05-.92-2.05-2.05-2.05Zm0,.72c.61,0,1.12.41,1.28.97h-2.56c.16-.56.67-.97,1.28-.97Zm0,2.66c-.61,0-1.12-.41-1.28-.97h2.56c-.16.56-.67.97-1.28.97Z"/>
    </g>
  </g>
</svg>