<?xml version="1.0" encoding="UTF-8"?>
<svg id="Layer_2" data-name="Layer 2" xmlns="http://www.w3.org/2000/svg" viewBox="0 0 185.65 49.44">
  <defs>
    <style>
      .cls-1 {
        stroke: #000;
        stroke-linecap: round;
        stroke-linejoin: round;
        stroke-width: 2px;
      }

      .cls-2 {
        fill: #6b4bfd;
      }
    </style>
  </defs>
  <g id="Layer_1-2" data-name="Layer 1">
    <g>
      <g>
        <path class="cls-2" d="m48.56,14.01c-.37-.16-.79-.07-1.08.21l-5.76,5.8v-11.88c0-.54-.44-.98-.98-.98h-11.55l5.36-5.5c.28-.28.36-.71.2-1.08C34.59.23,34.24,0,33.83,0l-12.32.25c-.25,0-.49.11-.68.29l-10.4,10.4c-.18.18-.29.43-.29.69v15.3L.29,36.79c-.38.38-.38,1,0,1.39s1,.38,1.39,0l10.15-10.15c.18-.18.29-.43.29-.69v-15.3L21.95,2.2l9.53-.19-13.15,13.49c-.18.18-.28.43-.28.68v13.55c0,.54.44.98.98.98h14.43c.26,0,.51-.1.7-.29l13.01-13.1-.12,9.72-9.59,9.59h-15.57c-.26,0-.51.1-.69.29l-10.83,10.83c-.38.38-.38,1,0,1.39.19.19.44.29.69.29s.5-.1.69-.29l10.55-10.55h15.57c.26,0,.51-.1.69-.29l10.16-10.16c.18-.18.28-.43.29-.68l.15-12.54c0-.4-.23-.76-.6-.92Zm-15.51,14.74h-13.04v-12.17l7.3-7.49c.08.02.17.04.26.04h12.18v12.85s0,.01,0,.02l-6.71,6.75Z"/>
        <path class="cls-2" d="m30.02,13.54c-3.08,0-5.59,2.51-5.59,5.59s2.51,5.59,5.59,5.59,5.59-2.51,5.59-5.59-2.51-5.59-5.59-5.59Zm0,1.96c1.66,0,3.07,1.12,3.5,2.65h-6.99c.43-1.53,1.83-2.65,3.5-2.65Zm0,7.26c-1.66,0-3.07-1.12-3.5-2.65h6.99c-.43,1.53-1.83,2.65-3.5,2.65Z"/>
      </g>
      <path class="cls-1" d="m57.47,12.22v25"/>
      <g>
        <path d="m76.91,20.42c-.15-.17-.37-.35-.66-.54-.29-.19-.63-.37-1.03-.54-.4-.17-.82-.3-1.28-.41-.46-.11-.93-.16-1.42-.16-1.07,0-1.86.2-2.38.59-.52.4-.78.94-.78,1.64,0,.52.14.92.43,1.22.29.3.73.54,1.33.74.59.2,1.34.41,2.24.64,1.1.26,2.05.57,2.86.92.81.36,1.42.83,1.85,1.42.43.59.64,1.38.64,2.35,0,.82-.15,1.53-.46,2.12-.3.59-.73,1.08-1.28,1.45-.55.37-1.18.65-1.9.82-.72.17-1.49.26-2.31.26s-1.61-.08-2.41-.25c-.8-.17-1.56-.42-2.29-.74-.72-.33-1.39-.73-2-1.2l1.17-2.2c.2.2.48.42.86.65.37.24.81.46,1.3.67.5.21,1.04.39,1.62.54s1.19.22,1.8.22c1.02,0,1.8-.18,2.34-.53.54-.36.81-.87.81-1.54,0-.55-.18-.98-.53-1.31s-.86-.6-1.53-.83-1.47-.46-2.4-.68c-1.07-.29-1.96-.6-2.68-.95-.72-.34-1.25-.78-1.61-1.32-.36-.54-.54-1.23-.54-2.06,0-1.06.26-1.97.78-2.7.52-.74,1.22-1.29,2.12-1.67.89-.37,1.89-.56,3.01-.56.73,0,1.43.08,2.08.24.66.16,1.27.38,1.84.65.57.27,1.09.59,1.57.94l-1.17,2.1Z"/>
        <path d="m81.28,32.84v-16.24h2.56v16.24h-2.56Z"/>
        <path d="m99.41,18.86h-5.4v13.98h-2.58v-13.98h-5.42v-2.26h13.4v2.26Z"/>
        <path d="m112.73,30.57v2.26h-11.14v-16.24h10.93v2.26h-8.37v4.62h7.25v2.13h-7.25v4.96h8.58Z"/>
        <path d="m134.68,32.84v-11.57l-4.78,8.78h-1.51l-4.8-8.78v11.57h-2.56v-16.24h2.74l5.38,9.93,5.38-9.93h2.75v16.24h-2.58Z"/>
        <path d="m147.68,32.95c-1.17,0-2.23-.23-3.18-.69-.95-.46-1.76-1.08-2.45-1.86-.69-.79-1.22-1.67-1.59-2.65-.37-.98-.56-1.99-.56-3.03s.2-2.12.59-3.1c.4-.98.95-1.86,1.65-2.63.7-.77,1.53-1.38,2.48-1.83.95-.45,1.99-.67,3.1-.67s2.21.24,3.17.71,1.77,1.11,2.45,1.9c.68.79,1.2,1.68,1.58,2.65.37.98.56,1.98.56,3,0,1.08-.2,2.12-.58,3.1-.39.98-.93,1.86-1.63,2.63-.7.77-1.53,1.38-2.48,1.82s-1.99.66-3.1.66Zm-5.17-8.23c0,.76.12,1.5.37,2.22.24.72.59,1.35,1.04,1.91.45.56,1,.99,1.64,1.31s1.36.48,2.15.48,1.56-.17,2.2-.5c.64-.33,1.18-.79,1.61-1.36s.77-1.21,1-1.92c.23-.71.34-1.42.34-2.14,0-.76-.12-1.5-.35-2.21-.24-.71-.58-1.34-1.04-1.9-.46-.56-1-.99-1.64-1.31s-1.34-.48-2.12-.48c-.82,0-1.56.17-2.2.5s-1.18.79-1.62,1.35c-.44.56-.78,1.2-1.02,1.9s-.35,1.42-.35,2.15Z"/>
        <path d="m158.13,32.84v-16.24h5.76c1.75,0,3.22.36,4.39,1.09,1.17.72,2.05,1.7,2.64,2.93.59,1.23.88,2.59.88,4.08,0,1.65-.32,3.08-.97,4.3-.65,1.22-1.57,2.17-2.76,2.84s-2.58,1.01-4.19,1.01h-5.76Zm11.07-8.14c0-1.14-.21-2.15-.63-3.03-.42-.88-1.02-1.56-1.81-2.06-.79-.5-1.74-.74-2.87-.74h-3.2v11.71h3.2c1.14,0,2.11-.26,2.89-.78s1.38-1.22,1.8-2.1c.41-.88.62-1.88.62-3Z"/>
        <path d="m185.65,30.57v2.26h-11.14v-16.24h10.93v2.26h-8.37v4.62h7.25v2.13h-7.25v4.96h8.58Z"/>
      </g>
    </g>
  </g>
</svg>